<svg xmlns="http://www.w3.org/2000/svg" width="62" height="75" viewBox="0 0 62 75" fill="none">
  <path
    d="M45.8419 32.8932H40.6548C40.5368 32.8932 40.4233 32.8449 40.339 32.7628L40.2997 32.7246C40.2177 32.6403 40.1693 32.5268 40.1693 32.4089V27.224C40.1693 26.9779 39.9704 26.7779 39.7243 26.7779H34.5395C34.4204 26.7779 34.308 26.7318 34.226 26.6475L34.1867 26.6093C34.1046 26.5273 34.0574 26.4138 34.0574 26.2958V21.1087C34.0574 20.8638 33.8585 20.6649 33.6136 20.6649H28.3872C28.1422 20.6649 27.9444 20.8638 27.9444 21.1087V26.3149C27.9444 26.4329 27.8961 26.5464 27.8141 26.6284L27.795 26.6475C27.7095 26.7318 27.5972 26.7779 27.4792 26.7779H22.2741C22.028 26.7779 21.828 26.9779 21.828 27.224V32.428C21.828 32.5459 21.7831 32.6594 21.6988 32.7437L21.6786 32.7628C21.5976 32.8449 21.4841 32.8932 21.3662 32.8932H16.1588C15.9139 32.8932 15.7161 33.0921 15.7161 33.337V44.6765C15.7161 44.9203 15.9139 45.1192 16.1588 45.1192H21.3707C21.4886 45.1192 21.6021 45.1676 21.6864 45.2496L21.6988 45.2642C21.7831 45.3462 21.828 45.4597 21.828 45.5777V50.7884C21.828 51.0356 22.028 51.2345 22.2741 51.2345H39.7266C39.9716 51.2345 40.1693 51.0367 40.1693 50.7918V45.5991C40.1693 45.4811 40.2177 45.3676 40.2997 45.2833L40.3334 45.2496C40.4177 45.1676 40.5312 45.1192 40.6492 45.1192H45.8419C46.0868 45.1192 46.2857 44.9203 46.2857 44.6765V33.337C46.2857 33.091 46.0857 32.8932 45.8419 32.8932ZM40.1693 44.6709C40.1693 44.7889 40.1244 44.9024 40.0401 44.9844L40.0367 44.9889C39.9525 45.0732 39.8401 45.1192 39.721 45.1192H22.2988C22.1809 45.1192 22.0674 45.0732 21.9853 44.9889L21.9584 44.9653C21.8763 44.881 21.828 44.7675 21.828 44.6518V33.3561C21.828 33.2382 21.8763 33.1247 21.9584 33.0404L21.9775 33.0235C22.0629 32.9393 22.1752 32.8932 22.2932 32.8932H27.4983C27.7444 32.8932 27.9444 32.6932 27.9444 32.4471V27.2409C27.9444 27.1251 27.9894 27.0116 28.0736 26.9274L28.0939 26.9083C28.1759 26.8262 28.2883 26.7779 28.4063 26.7779H33.6136C33.7316 26.7779 33.8451 26.8262 33.9271 26.9083C34.0091 26.9903 34.0574 27.106 34.0574 27.224V32.4471C34.0574 32.6932 34.2575 32.8932 34.5002 32.8932H39.7266C39.8446 32.8932 39.9581 32.9393 40.0401 33.0235C40.1244 33.1056 40.1693 33.2191 40.1693 33.337V44.6709Z"
    fill="url(#paint0_linear_137_743)" />
  <path
    d="M46.286 10.4416V15.9074C46.286 15.9658 46.3141 16.0209 46.3613 16.0557C52.917 20.8585 57.1546 28.6503 57.0467 37.4063C56.8725 51.6427 45.1701 63.1665 30.9326 63.1305C27.8255 63.1226 24.8432 62.5686 22.0799 61.5573C21.9586 61.5135 21.8316 61.6011 21.8316 61.7304V72.4461H21.8294V73.4991C21.8294 73.8148 22.0844 74.0699 22.4002 74.0699H27.3738C27.6896 74.0699 27.9446 73.8137 27.9446 73.4991V67.9288C28.9504 68.0277 29.9684 68.0816 31 68.0816C32.0316 68.0816 33.0497 68.0277 34.0554 67.9288V73.4991C34.0554 73.8137 34.3105 74.0699 34.6263 74.0699H39.5998C39.9156 74.0699 40.1707 73.8148 40.1707 73.4991V66.6961C52.8013 62.7765 62 50.9831 62 37.0816C62 25.6567 55.7881 15.6568 46.5647 10.2809C46.441 10.209 46.286 10.2989 46.286 10.4416ZM4.9511 37.0816C4.9511 22.7182 16.6367 11.0327 31 11.0327C34.1329 11.0327 37.1378 11.5889 39.9223 12.607C40.0426 12.6508 40.1707 12.5632 40.1707 12.4339V0.571973C40.1707 0.257332 39.9134 0 39.5987 0H34.6263C34.3105 0 34.0554 0.255084 34.0554 0.570849V6.23327C33.0497 6.13438 32.0316 6.08156 31 6.08156C29.9684 6.08156 28.9504 6.13438 27.9446 6.23327V0.571973C27.9446 0.256208 27.6884 0 27.3727 0H22.4002C22.0844 0 21.8294 0.255084 21.8294 0.570849V7.46711C9.19876 11.3866 0 23.1789 0 37.0816C0 48.5064 6.21304 58.5075 15.4376 63.8834C15.5613 63.9553 15.7163 63.8654 15.7163 63.7227V58.2569C15.7163 58.1985 15.6882 58.1434 15.641 58.1086C9.16505 53.3654 4.9511 45.7061 4.9511 37.0816Z"
    fill="url(#paint1_linear_137_743)" />
  <defs>
    <linearGradient id="paint0_linear_137_743" x1="62" y1="4.0062e-07" x2="1.59955e-06" y2="74"
      gradientUnits="userSpaceOnUse">
      <stop stop-color="#27FF00" />
      <stop offset="1" stop-color="#27FF00" />
    </linearGradient>
    <linearGradient id="paint1_linear_137_743" x1="62" y1="4.0062e-07" x2="1.59955e-06" y2="74"
      gradientUnits="userSpaceOnUse">
      <stop stop-color="#27FF00" />
      <stop offset="1" stop-color="#27FF00" />
    </linearGradient>
  </defs>
</svg>